<?xml version="1.0" encoding="UTF-8" standalone="no"?><!DOCTYPE svg PUBLIC "-//W3C//DTD SVG 1.1//EN" "http://www.w3.org/Graphics/SVG/1.1/DTD/svg11.dtd"><svg width="100%" height="100%" viewBox="0 0 11 11" version="1.1" xmlns="http://www.w3.org/2000/svg" xmlns:xlink="http://www.w3.org/1999/xlink" xml:space="preserve" xmlns:serif="http://www.serif.com/" style="fill-rule:evenodd;clip-rule:evenodd;stroke-linejoin:round;stroke-miterlimit:2;"><g><path d="M2.921,6.898c0.138,-1.561 1.518,-2.717 3.079,-2.579c1.562,0.138 2.717,1.517 2.58,3.079c-0.138,1.561 -1.518,2.717 -3.079,2.579c-1.562,-0.137 -2.718,-1.517 -2.58,-3.079Zm2.954,-0.508c0.489,0 0.885,0.397 0.885,0.885c-0,0.488 -0.396,0.884 -0.885,0.884c-0.488,0 -0.884,-0.396 -0.884,-0.884c0,-0.488 0.396,-0.885 0.884,-0.885Z" style="fill:#fff;"/><path d="M5.475,9.973c-3.458,-0.451 -4.361,-4.541 -2.929,-9.116c0.815,3.949 2.593,3.964 3.461,3.452c-1.24,1.907 -1.499,3.797 -0.532,5.664Z" style="fill:#fff;"/></g></svg>