<?xml version="1.0" encoding="UTF-8" standalone="no"?><!DOCTYPE svg PUBLIC "-//W3C//DTD SVG 1.1//EN" "http://www.w3.org/Graphics/SVG/1.1/DTD/svg11.dtd"><svg width="100%" height="100%" viewBox="0 0 250 137" version="1.1" xmlns="http://www.w3.org/2000/svg" xmlns:xlink="http://www.w3.org/1999/xlink" xml:space="preserve" xmlns:serif="http://www.serif.com/" style="fill-rule:evenodd;clip-rule:evenodd;stroke-linecap:round;stroke-linejoin:round;stroke-miterlimit:1.5;"><path d="M9.36,139.764c-7.32,-0.659 -6.04,-16.402 -1.953,-21.961c4.087,-5.559 19.716,-10.053 26.474,-11.394c4.73,-0.938 10.04,5.994 14.075,3.352c6.311,-4.134 13.963,-24.017 23.793,-28.15c9.83,-4.133 23.611,5.549 35.186,3.351c13.237,-2.513 30.851,-18.394 44.235,-18.431c21.512,-0.059 28.94,27.476 33.847,37.198c4.736,9.385 24.407,3.797 30.495,8.042c5.042,3.516 1.834,12.936 6.032,17.426c4.212,4.506 25.708,9.379 19.24,9.611c-22.733,0.817 -192.528,4.457 -231.424,0.956Z" style="fill:url(#_Linear1);"/><path d="M86.023,16.894c-0,0 -0.275,-0.783 -0,-0.843c0.731,-0.159 3.523,0.412 4.385,-0.112c0.862,-0.525 -0.094,-2.502 0.787,-3.036c0.881,-0.535 3.219,0.615 4.498,-0.169c1.284,-0.787 1.398,-4.262 3.205,-4.554c3.877,-0.627 7.364,5.018 7.477,7.084c0.049,0.885 1.884,0.853 2.586,0.618c0.703,-0.234 0.919,-1.911 1.631,-2.024c0.712,-0.112 2.108,0.816 2.642,1.35c0.457,0.457 0.563,1.855 0.563,1.855l-27.774,-0.169Z" style="fill:#fff;fill-opacity:0.79;"/><path d="M144.966,12.778c-0.932,-0.045 0.335,-2.196 1.208,-2.525c1.263,-0.476 5.106,0.714 6.369,-0.33c1.263,-1.043 -0.28,-4.567 1.208,-5.929c1.519,-1.391 5.362,-2.837 7.906,-2.416c2.544,0.421 5.051,4.575 7.357,4.941c2.306,0.366 4.182,-3.219 6.479,-2.745c2.837,0.586 7.229,5.179 10.542,6.259c2.959,0.965 7.028,0.531 9.334,0.22c1.639,-0.221 2.867,-2.341 4.502,-2.087c1.647,0.257 4.52,2.801 5.381,3.624c0.321,0.308 0.225,1.311 -0.22,1.318c-10.048,0.165 -50.256,0.146 -60.066,-0.33Z" style="fill:#fff;fill-opacity:0.57;"/><g><path d="M22.263,65.361c0,-0.426 -0.345,-0.772 -0.772,-0.772l-10.123,-0c-0.426,-0 -0.772,0.346 -0.772,0.772c0,0.426 0.346,0.772 0.772,0.772l10.123,-0c0.427,-0 0.772,-0.346 0.772,-0.772Z" style="fill:#fff;"/><path d="M13.215,70.807c0,-0.426 -0.346,-0.772 -0.772,-0.772l-10.123,0c-0.426,0 -0.772,0.346 -0.772,0.772c-0,0.427 0.346,0.773 0.772,0.773l10.123,-0c0.426,-0 0.772,-0.346 0.772,-0.773Z" style="fill:#fff;"/><path d="M122.596,113.058c-0,-0.426 -0.346,-0.772 -0.772,-0.772l-10.123,0c-0.427,0 -0.772,0.346 -0.772,0.772c-0,0.427 0.345,0.772 0.772,0.772l10.123,0c0.426,0 0.772,-0.345 0.772,-0.772Z" style="fill:#fff;"/><path d="M173.284,107.524c-0,-0.426 -0.346,-0.772 -0.772,-0.772l-10.123,-0c-0.426,-0 -0.772,0.346 -0.772,0.772c-0,0.426 0.346,0.772 0.772,0.772l10.123,0c0.426,0 0.772,-0.346 0.772,-0.772Z" style="fill:#fff;"/><path d="M184.854,19.977c0,-0.499 -0.405,-0.904 -0.904,-0.904l-13.637,-0c-0.499,-0 -0.904,0.405 -0.904,0.904c0,0.499 0.405,0.904 0.904,0.904l13.637,-0c0.499,-0 0.904,-0.405 0.904,-0.904Z" style="fill:#fff;"/><path d="M165.088,19.713c0,-0.499 -0.405,-0.904 -0.903,-0.904l-5.555,0c-0.499,0 -0.904,0.405 -0.904,0.904c-0,0.499 0.405,0.904 0.904,0.904l5.555,0c0.498,0 0.903,-0.405 0.903,-0.904Z" style="fill:#fff;"/><path d="M160.107,107.7c-0,-0.426 -0.346,-0.772 -0.772,-0.772l-3.535,-0c-0.426,-0 -0.772,0.346 -0.772,0.772c0,0.426 0.346,0.772 0.772,0.772l3.535,-0c0.426,-0 0.772,-0.346 0.772,-0.772Z" style="fill:#fff;"/><path d="M13.215,70.807c0,-0.426 -0.346,-0.772 -0.772,-0.772l-10.123,0c-0.426,0 -0.772,0.346 -0.772,0.772c-0,0.427 0.346,0.773 0.772,0.773l10.123,-0c0.426,-0 0.772,-0.346 0.772,-0.773Z" style="fill:#fff;"/><path d="M13.215,70.807c0,-0.426 -0.346,-0.772 -0.772,-0.772l-10.123,0c-0.426,0 -0.772,0.346 -0.772,0.772c-0,0.427 0.346,0.773 0.772,0.773l10.123,-0c0.426,-0 0.772,-0.346 0.772,-0.773Z" style="fill:#fff;"/><path d="M130.087,117.348c0,-0.426 -0.346,-0.772 -0.772,-0.772l-5.818,-0c-0.427,-0 -0.773,0.346 -0.773,0.772c0,0.426 0.346,0.772 0.773,0.772l5.818,-0c0.426,-0 0.772,-0.346 0.772,-0.772Z" style="fill:#fff;"/></g><g><g><path d="M182.016,129.566l0.029,2.476l5.872,0.115l0.086,-2.504l-5.987,-0.087Z" style="fill:#ff8f70;"/><path d="M181.903,131.929l0.202,4.922l11.716,-0.029c-0,0 -0.009,-1.286 -0.403,-1.727c-0.49,-0.547 -1.636,-1.161 -2.533,-1.554c-0.898,-0.394 -2.85,-0.806 -2.85,-0.806l-0.058,-0.777l-6.074,-0.029Z" style="fill:#193986;"/><clipPath id="_clip2"><path d="M181.903,131.929l0.202,4.922l11.716,-0.029c-0,0 -0.009,-1.286 -0.403,-1.727c-0.49,-0.547 -1.636,-1.161 -2.533,-1.554c-0.898,-0.394 -2.85,-0.806 -2.85,-0.806l-0.058,-0.777l-6.074,-0.029Z"/></clipPath><g clip-path="url(#_clip2)"><path d="M194.713,136.196c0,-0.337 -0.274,-0.611 -0.612,-0.611l-13.198,-0c-0.337,-0 -0.612,0.274 -0.612,0.611l0,1.224c0,0.337 0.275,0.611 0.612,0.611l13.198,0c0.338,0 0.612,-0.274 0.612,-0.611l0,-1.224Z" style="fill:#0d0d72;"/><rect x="180.061" y="131.036" width="9.211" height="1.382" style="fill:#a1a1a1;"/><ellipse cx="188.351" cy="133.526" rx="0.489" ry="1.079" style="fill:#fff;"/><ellipse cx="189.733" cy="133.728" rx="0.489" ry="1.079" style="fill:#fff;"/></g></g><g><path d="M200.772,129.476l-0.062,2.791l5.873,0.115l0.086,-2.504l-5.897,-0.402Z" style="fill:#ff8f70;"/><path d="M200.569,132.154l0.202,4.922l11.716,-0.029c-0,0 -0.009,-1.286 -0.403,-1.727c-0.49,-0.547 -1.636,-1.161 -2.533,-1.554c-0.898,-0.394 -2.85,-0.806 -2.85,-0.806l-0.058,-0.777l-6.074,-0.029Z" style="fill:#193986;"/><clipPath id="_clip3"><path d="M200.569,132.154l0.202,4.922l11.716,-0.029c-0,0 -0.009,-1.286 -0.403,-1.727c-0.49,-0.547 -1.636,-1.161 -2.533,-1.554c-0.898,-0.394 -2.85,-0.806 -2.85,-0.806l-0.058,-0.777l-6.074,-0.029Z"/></clipPath><g clip-path="url(#_clip3)"><path d="M213.379,136.421c0,-0.337 -0.274,-0.611 -0.612,-0.611l-13.198,-0c-0.338,-0 -0.612,0.274 -0.612,0.611l0,1.224c0,0.337 0.274,0.611 0.612,0.611l13.198,0c0.338,0 0.612,-0.274 0.612,-0.611l0,-1.224Z" style="fill:#0d0d72;"/><rect x="198.727" y="131.261" width="9.211" height="1.382" style="fill:#a1a1a1;"/><ellipse cx="207.017" cy="133.751" rx="0.489" ry="1.079" style="fill:#fff;"/><ellipse cx="208.399" cy="133.953" rx="0.489" ry="1.079" style="fill:#fff;"/></g></g><path d="M186.735,70.802c-0,0 -1.179,5.545 -1.412,8.363c-0.808,9.78 -3.437,50.32 -3.437,50.32l6.254,0.351c3.429,-8.916 7.02,-19.851 10.823,-33.452l1.687,33.101l6.184,0.211c3.564,-14.722 6.089,-32.926 6.466,-58.331c-10.301,2.524 -19.262,2.535 -26.565,-0.563Z" style="fill:#222256;"/><clipPath id="_clip4"><path d="M186.735,70.802c-0,0 -1.179,5.545 -1.412,8.363c-0.808,9.78 -3.437,50.32 -3.437,50.32l6.254,0.351c3.429,-8.916 7.02,-19.851 10.823,-33.452l1.687,33.101l6.184,0.211c3.564,-14.722 6.089,-32.926 6.466,-58.331c-10.301,2.524 -19.262,2.535 -26.565,-0.563Z"/></clipPath><g clip-path="url(#_clip4)"><g opacity="0.1"><path d="M192.287,72.419c-1.402,1.543 -5.074,3.193 -7.003,3.938" style="fill:none;stroke:#fff;stroke-width:1.02px;"/><path d="M207.889,72.77c0.825,2.016 2.751,3.773 4.887,4.32" style="fill:none;stroke:#fff;stroke-width:1.02px;"/><path d="M202.407,73.332c-0,3.03 -0.487,5.703 -0.751,8.731c-0.463,5.303 -0.782,10.134 -2.783,15.041" style="fill:none;stroke:#fff;stroke-width:1.02px;"/><path d="M205.218,72.349c0,1.668 -0.117,3.389 -0.633,4.987c-0.243,0.752 -1.516,1.764 -2.37,1.936" style="fill:none;stroke:#fff;stroke-width:1.02px;"/></g></g><path d="M186.735,70.802c-0,0 -1.179,5.545 -1.412,8.363c-0.808,9.78 -3.437,50.32 -3.437,50.32l6.254,0.351c3.429,-8.916 7.02,-19.851 10.823,-33.452l1.687,33.101l6.184,0.211c3.564,-14.722 6.089,-32.926 6.466,-58.331c-10.301,2.524 -19.262,2.535 -26.565,-0.563Z" style="fill:none;stroke:#000;stroke-opacity:0.36;stroke-width:0.74px;"/><g><path d="M229.83,26.402l4.146,-5.464c0.104,3.528 2.251,6.85 6.571,9.066l-5.78,1.546c-2.079,-1.211 -3.702,-2.954 -4.937,-5.148Z" style="fill:#fdfdfe;"/><g><path d="M242.472,21.422c2.289,3.405 2.614,7.2 0.724,8.47c-1.889,1.271 -5.282,-0.462 -7.571,-3.867c-2.288,-3.405 -2.613,-7.201 -0.723,-8.471c1.889,-1.27 5.282,0.463 7.57,3.868Z" style="fill:#4274cd;stroke:#5b88e9;stroke-width:0.74px;"/><path d="M234.956,24.136l1.964,-0.424l1.85,1.711l-1.213,2.349c-1.157,-0.932 -2.103,-2.224 -2.601,-3.636Z" style="fill:#002261;"/><path d="M236.92,23.712l1.268,-1.045c1.103,-0.09 1.596,0.66 1.619,1.709l-1.079,1.147c-0.668,-0.322 -1.38,-1.189 -1.808,-1.811Z" style="fill:#fff;"/></g><path d="M229.079,27.614l0.734,-1.223c1.09,1.783 3.178,4.043 4.965,5.188l-0.632,0.709c-1.813,-0.566 -4.029,-2.351 -5.067,-4.674Z" style="fill:#3b6cc1;"/><path d="M227.248,30.654c0,0 -0.759,2.39 -0.205,3.037c0.553,0.648 3.526,0.85 3.526,0.85c-0.606,-1.395 -1.548,-2.835 -3.321,-3.887Z" style="fill:#fdffff;"/><path d="M228.186,32.97c-0.347,-0.819 -1.041,-2.458 -1.041,-2.458l2.049,-2.968c0.94,2.145 2.613,3.648 4.958,4.563l-3.231,2.813" style="fill:#699eeb;"/></g><path d="M230.504,39.157c0,-0 -0.058,-2.159 0.354,-3.121c0.445,-1.04 1.619,-2.617 2.316,-3.121c0.505,-0.365 1.329,-0.218 1.866,0.097c0.805,0.472 2.692,1.587 2.96,2.734c0.268,1.148 -1.351,4.151 -1.351,4.151l-1.705,0.997l-4.44,-1.737Z" style="fill:#ff886f;"/><clipPath id="_clip5"><path d="M230.504,39.157c0,-0 -0.058,-2.159 0.354,-3.121c0.445,-1.04 1.619,-2.617 2.316,-3.121c0.505,-0.365 1.329,-0.218 1.866,0.097c0.805,0.472 2.692,1.587 2.96,2.734c0.268,1.148 -1.351,4.151 -1.351,4.151l-1.705,0.997l-4.44,-1.737Z"/></clipPath><g clip-path="url(#_clip5)"><path d="M234.558,35.039c-0,-0 1.383,1.705 1.898,1.673c0.515,-0.033 0.611,-0.74 0.611,-0.74l0.933,0.032l0.161,2.091c-0,-0 -2.992,0.708 -3.217,0.289c-0.225,-0.418 -0.965,-3.474 -0.965,-3.474l0.579,0.129Z" style="fill:#001d66;"/></g><path d="M198.859,35.898l-0.055,-7.192l1.373,-0.769l0.933,-2.855c0.165,-0.513 1.062,-1.025 2.691,-1.537c1.299,1.228 1.646,2.186 1.774,3.56c0,0 1.421,1.333 1.462,2.017c0.003,0.046 -0.185,0.208 -0.373,0.3c-0.234,0.115 -0.48,0.161 -0.478,0.211c0.038,1.057 -0.068,1.51 -0.158,1.995c-0.065,0.356 -0.909,0.592 -0.909,0.592l-0,4.117c-2.087,1.37 -4.173,1.266 -6.26,-0.439Z" style="fill:#fd876f;"/><path d="M198.822,31.52c-0.586,-0.137 -2.262,-1.081 -2.982,-2.705c-0.862,-1.848 -0.53,-3.697 0.658,-5.545c2.502,-0.466 3.395,-3.422 5.052,-3.404c1.656,0.018 4.767,2.635 4.886,3.514c0.119,0.878 -3.788,0.988 -4.173,1.757c-0.384,0.768 -1.482,2.58 -1.866,3.02c-0.385,0.439 -1.044,1.482 -1.044,1.482c0,-0 0.055,2.018 -0.531,1.881Z" style="fill:#030101;"/><path d="M213.691,51.016c2.009,4.11 4.694,7.071 8.797,7.619c3.346,0.072 12.495,-17.875 12.495,-17.875l-4.484,-1.761c-4.319,4.227 -6.728,6.456 -7.697,8.797l-2.906,-0.785l-6.205,4.005" style="fill:#ff886f;"/><path d="M183.078,45.992c1.84,2.926 4.497,5.034 8.012,6.284l-2.671,3.77l-2.67,14.53c7.014,3.614 16.967,3.22 28.589,0.55l-1.178,-19.322c3.506,-0.28 6.129,-2.075 8.168,-4.869c0,-0 -6.034,-7.92 -8.482,-9.896c-1.688,-1.363 -6.205,-1.964 -6.205,-1.964c-2.904,2.59 -5.71,2.829 -8.404,0.393c-0,-0 -6.309,0.55 -8.797,2.277c-2.526,1.755 -6.362,8.247 -6.362,8.247Z" style="fill:#3463c8;"/><clipPath id="_clip6"><path d="M183.078,45.992c1.84,2.926 4.497,5.034 8.012,6.284l-2.671,3.77l-2.67,14.53c7.014,3.614 16.967,3.22 28.589,0.55l-1.178,-19.322c3.506,-0.28 6.129,-2.075 8.168,-4.869c0,-0 -6.034,-7.92 -8.482,-9.896c-1.688,-1.363 -6.205,-1.964 -6.205,-1.964c-2.904,2.59 -5.71,2.829 -8.404,0.393c-0,-0 -6.309,0.55 -8.797,2.277c-2.526,1.755 -6.362,8.247 -6.362,8.247Z"/></clipPath><g clip-path="url(#_clip6)"><g opacity="0.3"><path d="M196.131,46.264c-1.049,1.935 -3.438,4.309 -5.024,5.817" style="fill:none;stroke:#000;stroke-width:0.74px;"/><path d="M212.014,42.851c-0.426,3.358 0.356,6.341 1.522,9.465" style="fill:none;stroke:#000;stroke-width:0.74px;"/><path d="M198.394,35.531c2.514,3.005 5.543,2.518 7.848,-0.34" style="fill:none;stroke:#000;stroke-width:0.74px;"/></g></g><path d="M183.505,45.73c-7.056,11.127 -14.113,19.35 -21.169,26.078c-0.165,1.346 0.041,2.301 0.702,2.774c0.682,0.489 1.849,0.466 3.593,-0.166c9.191,-5.384 17.336,-12.992 24.851,-21.937l-7.977,-6.749Z" style="fill:#ff886f;"/></g><g><path d="M43.957,39.172c-0.07,-3.395 1.271,-6.791 5.551,-10.186c1.588,0.307 2,2.439 2.521,3.162c0.257,0.359 0.469,0.842 0.601,1.18c0.105,0.268 0.297,0.593 0.188,0.845c-0.108,0.251 -0.64,0.367 -0.838,0.663c-0.296,0.445 -0.47,1.64 -0.94,2.007c-0.469,0.367 -1.878,0.198 -1.878,0.198l-0.247,2.569l-2.075,1.631l-2.883,-2.069Z" style="fill:#fda38f;"/><path d="M49.315,29.447c0.635,-0.586 2.083,1.544 2.083,1.544c-0,-0 1.969,0.381 1.66,-0.079c-0.672,-1.002 -3.677,-5.68 -5.693,-5.93c-2.016,-0.251 -5.765,2.292 -6.404,4.428c0.346,1.37 -0.853,2.175 -2.194,2.491c0,-0 -2.613,-0.475 -3.459,0.315c-1.038,0.969 -2.078,3.564 -2.768,5.495c-0.692,1.938 -3.143,6.049 -1.383,6.128c1.759,0.079 9.745,-4.599 11.939,-5.653c0.42,-0.202 0.958,-0.29 1.225,-0.672c1.074,-1.535 3.814,-6.98 4.994,-8.067Z" style="fill:#010101;"/><path d="M29.445,52.942c0,-0 -2.463,7.066 -3.016,10.745c-0.628,4.178 -1.256,12.064 -0.754,14.326c0.278,1.252 3.248,0.417 3.77,-0.754c0.912,-2.042 0.786,-7.885 1.697,-11.499c0.885,-3.508 3.77,-10.179 3.77,-10.179l-5.467,-2.639Z" style="fill:#fca18e;"/><path d="M48.815,56.158c0,0 5.012,5.557 7.972,7.811c3.362,2.56 9.975,6.902 12.2,7.548c1.231,0.358 1.926,-2.647 1.151,-3.668c-1.352,-1.781 -6.537,-4.48 -9.267,-7.016c-2.651,-2.462 -7.113,-8.199 -7.113,-8.199l-4.943,3.524Z" style="fill:#fca18e;"/><path d="M34.896,63.729l-0.006,1.958c4.651,1.381 9.728,1.697 15.054,1.391l1.434,-2.741l-16.482,-0.608Z" style="fill:#ffa28c;"/><path d="M28.282,52.453c1.447,-6.763 5.369,-11.668 15.675,-13.281c-0,0 1.685,1.313 2.47,1.274c0.785,-0.038 1.387,-1.793 2.24,-1.506c5.404,1.821 8.974,9.26 7.721,14.825l-3.263,0.694l0.715,10.039c-7.442,1.428 -14.42,1.158 -20.925,-0.849l1.697,-6.608c-2.38,-1.074 -3.95,-2.524 -6.33,-4.588Z" style="fill:#fff;"/><clipPath id="_clip7"><path d="M28.282,52.453c1.447,-6.763 5.369,-11.668 15.675,-13.281c-0,0 1.685,1.313 2.47,1.274c0.785,-0.038 1.387,-1.793 2.24,-1.506c5.404,1.821 8.974,9.26 7.721,14.825l-3.263,0.694l0.715,10.039c-7.442,1.428 -14.42,1.158 -20.925,-0.849l1.697,-6.608c-2.38,-1.074 -3.95,-2.524 -6.33,-4.588Z"/></clipPath><g clip-path="url(#_clip7)"><path d="M28.488,52.398c2.464,1.469 3.538,3.402 6.911,4.546c0.26,0.088 5.414,-5.852 5.479,-6.821" style="fill:none;stroke:#8c8c8c;stroke-opacity:0.5;stroke-width:0.61px;"/><path d="M53.121,45.192c0.474,2.83 -0.654,5.932 0.655,9.245" style="fill:none;stroke:#8c8c8c;stroke-opacity:0.5;stroke-width:0.61px;"/></g><g id="Foot"><path d="M50.827,126.091c0.032,4.946 0.229,7.4 0.496,8.801c2.244,1.133 4.544,0.936 6.887,-0.233l0.929,-1.954c-1.013,-1.61 -1.17,-3.465 -0.782,-5.476l-7.53,-1.138Z" style="fill:#fba08d;"/><path d="M50.121,133.428c0.048,-0.655 0.158,-1.165 0.376,-1.261c0.697,-0.307 3.893,2.995 3.893,2.995l4.511,-2.104c0,-0 6.088,2.269 5.999,2.979c-0.089,0.711 -6.534,1.282 -6.534,1.282c0,0 -1.68,-0.954 -2.282,-0.984c-0.518,-0.025 -1.33,0.809 -1.33,0.809l-4.545,-0.143c-0,-0 -0.058,-0.639 -0.093,-1.453l2.812,-0.132c-0.796,-0.812 -1.747,-1.459 -2.807,-1.988Z" style="fill:#010406;"/></g><g id="Foot1" serif:id="Foot"><path d="M25.275,111.399c-3.591,3.401 -5.25,5.221 -6.091,6.372c0.704,2.413 2.419,3.96 4.873,4.873l2.061,-0.656c0.485,-1.839 1.733,-3.221 3.468,-4.31l-4.311,-6.279Z" style="fill:#fba08d;"/><path d="M19.433,115.894c0.511,-0.413 0.959,-0.681 1.178,-0.587c0.7,0.3 0.47,4.889 0.47,4.889l4.618,1.86c-0,-0 2.498,5.997 1.919,6.417c-0.58,0.42 -5.398,-3.899 -5.398,-3.899c0,0 -0.45,-1.879 -0.84,-2.338c-0.335,-0.396 -1.499,-0.42 -1.499,-0.42l-2.998,-3.419c-0,0 0.427,-0.478 0.997,-1.059l2.017,1.964c0.049,-1.136 -0.127,-2.272 -0.464,-3.408Z" style="fill:#010406;"/></g><path d="M34.89,65.687c-5.236,5.391 2.643,24.046 2.703,24.959c0.5,7.602 -13.59,19.434 -13.59,19.434l7.413,10.295l15.339,-16.987l1.236,23.915l12.56,0.206c-0.404,-11.762 -0.069,-24.997 -1.648,-35.288c-1.394,-9.09 -4.038,-17.9 -7.824,-26.458c-4.372,1.876 -9.895,1.617 -16.189,-0.076Z" style="fill:#f44e3d;stroke:#000;stroke-opacity:0.33;stroke-width:0.61px;"/><g opacity="0.25"><path d="M34.419,66.376c3.048,0.673 6.214,0.935 9.33,1.058c1.344,0.054 2.709,0.224 4.053,0.123c1.216,-0.092 2.41,-0.432 3.551,-0.847" style="fill:none;stroke:#000;stroke-width:0.61px;"/><path d="M34.376,66.46c-0.365,0.659 -0.7,1.316 -0.94,2.032" style="fill:none;stroke:#000;stroke-width:0.61px;"/><path d="M33.364,68.611c1.658,0.407 3.327,0.852 4.943,1.401" style="fill:none;stroke:#000;stroke-width:0.61px;"/><path d="M38.382,70.087c-0.943,0.922 -2.084,1.492 -3.199,2.17c-0.541,0.33 -1.034,0.745 -1.544,1.119" style="fill:none;stroke:#000;stroke-width:0.61px;"/><path d="M38.593,70.213c1.877,0 3.758,-0.019 5.634,-0.057c1.091,-0.023 2.207,0.05 3.294,-0.045c1.249,-0.11 3.417,-0.73 4.595,-1.117" style="fill:none;stroke:#000;stroke-width:0.61px;"/><path d="M36.718,66.905c0.046,0.728 0.086,1.465 0.15,2.191" style="fill:none;stroke:#000;stroke-width:0.61px;"/><path d="M42.701,67.445c0.083,0.821 0.265,1.587 0.199,2.415" style="fill:none;stroke:#000;stroke-width:0.61px;"/><path d="M46.659,67.76c-0,0.835 0.07,1.447 0.18,2.275" style="fill:none;stroke:#000;stroke-width:0.61px;"/><path d="M44.539,70.305c0.714,2.421 0.866,3.612 1.115,6.134c0.466,4.716 3.454,17.006 3.444,17.157c-0.261,3.956 -2.148,6.156 -2.44,10.107" style="fill:none;stroke:#000;stroke-width:0.61px;"/></g></g><g><g><path d="M156.051,50.829c3.523,2.177 5.588,3.34 8.162,3.039c9.71,-2.466 12.885,-11.17 16.685,-11.575c1.44,-1.543 -0.088,-2.561 -2.681,-2.712c-2.722,-0.159 -2.988,6.344 -11.864,8.138c-3.784,-0.191 -6.675,-1.475 -8.778,-3.64l-1.524,6.75Z" style="fill:#ffa18d;"/><path d="M177.03,39.987c0,0 3.598,-1.676 4.446,-1.582c0.848,0.094 -0.754,1.791 -1.131,1.838c-0.377,0.047 -3.315,-0.256 -3.315,-0.256Z" style="fill:#ffa18d;"/></g><path d="M140.183,126.769l-0.35,2.168l6.397,-0.066l-0.466,-2.266l-5.581,0.164Z" style="fill:#072a4f;"/><g><path d="M139.811,128.087l0.096,3.151l3.812,-0.217l1.279,-3.112l-5.187,0.178Z" style="fill:#ffa285;"/><path d="M139.762,130.949l-0.12,6.08l8.227,0.048l-0.048,-1.906c0,0 -1.146,-0.953 -1.761,-1.158c-0.611,-0.204 -1.931,-0.072 -1.931,-0.072l-0.313,-1.738l0.096,-1.327l-4.15,0.073Z" style="fill:#4776ce;"/><clipPath id="_clip8"><path d="M139.762,130.949l-0.12,6.08l8.227,0.048l-0.048,-1.906c0,0 -1.146,-0.953 -1.761,-1.158c-0.611,-0.204 -1.931,-0.072 -1.931,-0.072l-0.313,-1.738l0.096,-1.327l-4.15,0.073Z"/></clipPath><g clip-path="url(#_clip8)"><path d="M139.762,130.949l-0.041,2.075l4.264,-0.217l0.313,-2.196l-4.536,0.338Z" style="fill:#fff;"/><path d="M139.714,135.823l8.228,0.072l0.41,1.617l-8.759,-0.29l0.121,-1.399Z" style="fill:#203e74;"/><ellipse cx="144.902" cy="134.182" rx="0.217" ry="0.796" style="fill:#203e74;"/><ellipse cx="145.625" cy="134.206" rx="0.241" ry="0.724" style="fill:#203e74;"/><path d="M144.517,133.473c0.128,0.084 0.064,0.41 -0.143,0.728c-0.207,0.318 -0.48,0.508 -0.608,0.424c-0.128,-0.083 -0.064,-0.409 0.143,-0.727c0.207,-0.318 0.48,-0.508 0.608,-0.425Z" style="fill:#203e74;"/></g></g><g><path d="M105.793,98.341l-3.087,0.641l0.874,3.717l3.287,0.72l-1.074,-5.078Z" style="fill:#ffa285;"/><path d="M102.966,98.789l-6.009,0.935l1.377,8.111l1.869,-0.378c0,0 0.741,-1.293 0.836,-1.935c0.095,-0.637 -0.263,-1.914 -0.263,-1.914l1.656,-0.609l1.324,-0.135l-0.79,-4.075Z" style="fill:#4776ce;"/><clipPath id="_clip9"><path d="M102.966,98.789l-6.009,0.935l1.377,8.111l1.869,-0.378c0,0 0.741,-1.293 0.836,-1.935c0.095,-0.637 -0.263,-1.914 -0.263,-1.914l1.656,-0.609l1.324,-0.135l-0.79,-4.075Z"/></clipPath><g clip-path="url(#_clip9)"><path d="M102.966,98.789l-2.051,0.319l0.953,4.161l2.216,-0.071l-1.118,-4.409Z" style="fill:#fff;"/><path d="M98.157,99.586l1.354,8.116l-1.521,0.684l-1.232,-8.677l1.399,-0.123Z" style="fill:#203e74;"/><path d="M101.456,104.273c0.021,0.118 -0.314,0.275 -0.746,0.352c-0.433,0.076 -0.801,0.042 -0.822,-0.076c-0.021,-0.118 0.314,-0.276 0.746,-0.352c0.433,-0.076 0.801,-0.042 0.822,0.076Z" style="fill:#203e74;"/><path d="M101.486,105.002c0.024,0.132 -0.277,0.294 -0.671,0.363c-0.393,0.07 -0.731,0.019 -0.754,-0.112c-0.023,-0.131 0.277,-0.294 0.671,-0.363c0.393,-0.069 0.731,-0.019 0.754,0.112Z" style="fill:#203e74;"/><path d="M101.303,103.909c-0.06,0.141 -0.392,0.134 -0.741,-0.015c-0.349,-0.149 -0.584,-0.384 -0.523,-0.525c0.06,-0.141 0.392,-0.134 0.741,0.015c0.349,0.149 0.584,0.384 0.523,0.525Z" style="fill:#203e74;"/></g></g><path d="M110.92,95.209c5.6,-4.206 11.059,-7.941 19.991,-8.538c0.712,-1.972 1.517,-3.178 1.858,-4.879c1.425,-7.123 1.113,-11.872 2.098,-15.32c0.953,-3.332 5.102,-9.058 5.102,-9.058l14.577,2.186c0.976,12.273 1.002,24.863 0.312,37.692c-2.543,16.313 -6.237,24.199 -9.058,30.507l-5.831,0.416c1.874,-12.475 2.916,-25.042 2.291,-37.795c-5.206,7.131 -14.751,10.673 -28.008,11.141l-3.332,-6.352Z" style="fill:#eaeaea;stroke:#000;stroke-opacity:0.39;stroke-width:0.74px;"/><g opacity="0.32"><path d="M138.211,60.866c5.467,1.795 10.78,3.116 16.549,2.243" style="fill:none;stroke:#000;stroke-width:0.74px;"/><path d="M146.718,58.694c-0.154,0.989 -0.68,3.154 -1.181,4.014" style="fill:none;stroke:#000;stroke-width:0.74px;"/><path d="M149.085,58.992c0.402,2.069 0.727,5.008 0.738,7.112c0.007,1.379 0.191,3.019 -0.063,4.378" style="fill:none;stroke:#000;stroke-width:0.74px;"/><path d="M151.52,63.529c-0,1.656 0.291,3.924 0.086,5.57" style="fill:none;stroke:#000;stroke-width:0.74px;"/><path d="M151.512,69.19c-0.668,0.301 -0.987,0.659 -1.608,1.036" style="fill:none;stroke:#000;stroke-width:0.74px;"/><path d="M149.758,70.439c-0.253,8.007 -4.123,14.501 -8.426,20.965" style="fill:none;stroke:#000;stroke-width:0.74px;"/></g><g><path d="M150.337,24.902l-0.989,1.226l3.581,2.403l0.566,-2.262l-3.158,-1.367Z" style="fill:#203763;"/><path d="M142.279,32.584c-0,-0 -2.097,0.604 -2.262,1.319c-0.165,0.715 0.44,2.443 1.272,2.969c0.833,0.526 3.723,0.189 3.723,0.189c0,-0 3.52,0.349 6.366,0.284c1.308,-0.029 2.548,-0.369 3.106,-0.473c0.703,-0.13 1.248,-1.08 1.179,-1.791c-0.079,-0.801 -1.65,-3.016 -1.65,-3.016l-1.037,-3.628l-2.214,-2.357c-2.671,-0.031 -4.87,0.016 -6.033,0.236c-1.202,0.352 -1.939,1.171 -1.885,2.78l-0.565,3.488Z" style="fill:#010304;"/><path d="M150.102,24.714c-0.165,-0.762 1.217,-2.679 1.885,-2.922c0.667,-0.243 1.563,1.147 2.12,1.461c0.377,0.212 1.106,0.009 1.226,0.424c0.165,0.573 0.157,2.568 -0.236,3.016c-0.393,0.448 -1.455,-0.066 -2.121,-0.33c-0.832,-0.33 -2.709,-0.887 -2.874,-1.649Z" style="fill:#010304;"/><path d="M144.895,38.136c0.756,1.965 2.221,2.095 4.183,0.943c-0,-0 -0.157,-3.338 -0,-4.065c0.069,-0.322 0.816,0.009 0.942,-0.294c0.148,-0.354 0.069,-1.483 -0.059,-1.827c-0.086,-0.232 -0.634,0.002 -0.707,-0.235c-0.147,-0.481 -0.176,-2.651 -0.176,-2.651c-1.563,-0.067 -2.852,-0.407 -3.711,-1.178l-2.357,0.059c-0.865,0.935 -0.722,2.054 -0.742,3.38c-0.009,0.572 -0.457,1.214 -0.339,1.819c0.036,0.188 0.308,0.151 0.467,0.453c0.241,0.452 0.423,1.259 0.732,1.475c0.514,0.361 1.885,0.236 1.885,0.236l-0.118,1.885Z" style="fill:#fea18e;"/></g></g><g><path d="M97.167,32.05c-1.028,-2.996 -1.218,-6.048 2.026,-9.329c3.247,-0.291 6.101,-0.226 7.783,0.906l0.32,2.346c-2.647,0.394 -4.391,0.387 -5.757,0.213c-1.991,1.983 -3.518,3.881 -4.372,5.864Z"/><path d="M106.706,128.487c-0,0 -0.509,3.767 -0.552,6.1c-0.02,1.078 -0.444,1.925 0.23,2.338c0.784,0.48 3.122,-0.072 5.312,-0.094c3.774,-0.036 7.818,0.15 7.818,0.15c1.613,0.141 2.615,-0.36 2.409,-2.129c-0.444,-1.256 -1,-1.548 -2.45,-1.924c0,0 -4.127,-0.751 -5.223,-1.448c-0.857,-0.545 -1.351,-2.731 -1.351,-2.731l-6.193,-0.262Z" style="fill:#ffe078;"/><clipPath id="_clip10"><path d="M106.706,128.487c-0,0 -0.509,3.767 -0.552,6.1c-0.02,1.078 -0.444,1.925 0.23,2.338c0.784,0.48 3.122,-0.072 5.312,-0.094c3.774,-0.036 7.818,0.15 7.818,0.15c1.613,0.141 2.615,-0.36 2.409,-2.129c-0.444,-1.256 -1,-1.548 -2.45,-1.924c0,0 -4.127,-0.751 -5.223,-1.448c-0.857,-0.545 -1.351,-2.731 -1.351,-2.731l-6.193,-0.262Z"/></clipPath><g clip-path="url(#_clip10)"><path d="M106.591,128.526l-0.222,3.113c0,-0 7.279,-0.979 7.443,-1.431c0.165,-0.452 -0.915,-1.632 -0.915,-1.632l-6.306,-0.05Z" style="fill:#ff8a72;"/><path d="M106.031,135.947c5.684,0.006 11.115,0.139 16.252,0.419l-1.057,0.929l-15.885,-0.101l0.69,-1.247Z" style="fill:#19262c;"/><path d="M114.115,131.225c0.588,-0.503 1.156,-0.805 1.269,-0.674c0.113,0.132 -0.272,0.648 -0.859,1.152c-0.588,0.503 -1.156,0.805 -1.269,0.673c-0.113,-0.132 0.272,-0.647 0.859,-1.151Z" style="fill:#19262c;"/><path d="M115.209,131.737c0.588,-0.504 1.156,-0.806 1.269,-0.674c0.113,0.132 -0.272,0.647 -0.859,1.151c-0.588,0.504 -1.156,0.805 -1.269,0.674c-0.113,-0.132 0.272,-0.648 0.859,-1.151Z" style="fill:#19262c;"/></g><path d="M70.812,123.024c-0,0 -2.414,2.033 -3.965,3.776c-0.717,0.806 -1.59,1.172 -1.347,1.925c0.283,0.874 2.417,1.977 4.094,3.386c2.889,2.429 5.838,5.202 5.838,5.202l3.214,-0.048c0.48,-1.242 0.249,-1.826 -0.607,-3.055c-0,0 -2.645,-3.257 -3.023,-4.499c-0.296,-0.972 0.752,-2.953 0.752,-2.953l-4.956,-3.734Z" style="fill:#ffe078;"/><clipPath id="_clip11"><path d="M70.812,123.024c-0,0 -2.414,2.033 -3.965,3.776c-0.717,0.806 -1.59,1.172 -1.347,1.925c0.283,0.874 2.417,1.977 4.094,3.386c2.889,2.429 5.838,5.202 5.838,5.202l3.214,-0.048c0.48,-1.242 0.249,-1.826 -0.607,-3.055c-0,0 -2.645,-3.257 -3.023,-4.499c-0.296,-0.972 0.752,-2.953 0.752,-2.953l-4.956,-3.734Z"/></clipPath><g clip-path="url(#_clip11)"><path d="M70.812,123.024l-1.882,1.678c-0,0 6.162,3.994 6.582,3.758c0.419,-0.236 0.366,-1.834 0.366,-1.834l-5.066,-3.602Z" style="fill:#ff8a72;"/><path d="M65.869,127.753l10.848,9.537l-1.415,0.236l-10.769,-9.275l1.336,-0.498Z" style="fill:#19262c;"/><ellipse cx="75.079" cy="129.744" rx="1.402" ry="0.314" style="fill:#19262c;"/><ellipse cx="75.577" cy="130.845" rx="1.402" ry="0.314" style="fill:#19262c;"/></g><path d="M76.113,69.828c0.015,4.776 3.416,12.39 3.748,13.269c1.734,4.59 0.3,15.893 0.3,15.893l-10.12,23.014c1.286,2.389 3.211,4.033 5.697,5.023l14.319,-21.14l2.699,-14.769c3.628,2.233 6.741,6.014 9.37,11.245c2.783,9.06 3.616,17.703 3.599,26.163c2.491,0.751 5.454,0.875 8.546,0.825l-0.225,-27.438l-2.849,-8.621l-10.72,-18.291l0,-2.174c-8.902,-0.707 -17.061,-1.693 -24.364,-2.999Z" style="fill:#00152f;"/><g opacity="0.12"><path d="M80.014,71.639c1.461,2.284 3.332,5.502 4.551,7.928c1.335,2.656 3.475,5.712 5.206,8.137c0.911,1.275 2.053,2.371 3.23,3.389" style="fill:none;stroke:#fff;stroke-width:0.74px;"/><path d="M85.234,74.39c2.507,-0 4.997,-0.096 7.503,-0.132" style="fill:none;stroke:#fff;stroke-width:0.74px;"/><path d="M92.655,74.287c-0,1.652 0.061,3.565 -0.815,5.047c-0.977,1.654 -3.311,1.763 -4.517,0.33c-0.796,-0.946 -1.031,-2.221 -1.157,-3.42c-0.064,-0.617 -0.406,-1.308 -0.806,-1.824" style="fill:none;stroke:#fff;stroke-width:0.74px;"/></g><path d="M79.758,44.382c-8.345,6.969 -11.389,16.059 -13.47,25.535c0.251,2.967 1.545,3.553 3.982,1.523c3.371,-6.227 6.879,-12.712 12.768,-23.661l-3.28,-3.397" style="fill:#ff886f;"/><path d="M101.243,55.811c5.769,9.217 14.36,13.47 23.464,16.821c2.974,0.155 3.73,-1.047 2.051,-3.739c-3.77,-2.763 -6.711,-4.335 -10.909,-8.363c-2.162,-2.074 -4.381,-6.066 -7.796,-8.556l-6.81,3.837" style="fill:#ff886f;"/><path d="M96.368,34.289c0.963,-3.039 2.59,-5.776 5.117,-8.103l3.519,-0.16l0.586,3.198c0,0 0.897,1.262 0.853,1.6c-0.044,0.337 -1.119,0.426 -1.119,0.426c-0,0 -0.125,2.826 -0.48,3.465c-0.274,0.494 -1.653,0.373 -1.653,0.373l-1.919,2.506c-3.497,0.044 -5.103,-1.075 -4.904,-3.305Z" style="fill:#fe8a71;"/><path d="M79.786,45.089l-0.824,-1.724c3.426,-3.635 8.238,-6.887 17.467,-8.921c-0,-0 0.212,1.825 0.899,2.249c0.75,0.462 3.599,0.525 3.599,0.525c4.99,3.403 7.83,8.24 9.82,13.644l-9.445,5.547l1.349,1.349l0,15.069c-10.052,0.404 -19.609,-0.605 -28.262,-4.199c2.005,-6.896 4.305,-13.793 8.921,-20.69l-3.524,-2.849Z" style="fill:#f3f3f3;"/><clipPath id="_clip12"><path d="M79.786,45.089l-0.824,-1.724c3.426,-3.635 8.238,-6.887 17.467,-8.921c-0,-0 0.212,1.825 0.899,2.249c0.75,0.462 3.599,0.525 3.599,0.525c4.99,3.403 7.83,8.24 9.82,13.644l-9.445,5.547l1.349,1.349l0,15.069c-10.052,0.404 -19.609,-0.605 -28.262,-4.199c2.005,-6.896 4.305,-13.793 8.921,-20.69l-3.524,-2.849Z"/></clipPath><g clip-path="url(#_clip12)"><path d="M93.593,35.709c-2.881,3.962 -8.158,6.374 -10.561,11.899" style="fill:none;stroke:#8c8c8c;stroke-opacity:0.5;stroke-width:0.74px;"/><path d="M110.684,50.697c-3.583,2.89 -7.633,3.333 -9.837,6.199" style="fill:none;stroke:#8c8c8c;stroke-opacity:0.5;stroke-width:0.74px;"/><path d="M93.921,45.656c2.249,3.258 2.97,7.703 6.536,10.998" style="fill:none;stroke:#8c8c8c;stroke-opacity:0.5;stroke-width:0.74px;"/></g></g><g><path d="M132.335,46.478c-3.294,2.512 -4.763,5.023 -5.402,7.535c-1.171,9.948 -2.217,15.782 -3.199,19.475c0.925,1.897 2.108,1.611 3.412,0.285c1.122,-2.485 2.906,-7.631 4.407,-16.562c2.059,-2.418 4.289,-4.666 6.539,-6.894l-5.757,-3.839Z" style="fill:#ffa18d;"/><path d="M132.022,46.447c1.959,2.379 3.253,3.973 5.402,4.834c0.602,-0.534 1.383,-0.852 2.488,-0.782c0.811,2.673 0.753,4.766 0.426,6.681l13.861,2.132c-0.292,-2.912 -0.447,-5.852 0.213,-8.956l2.132,1.351c2.658,-1.408 4.071,-2.833 5.402,-5.189c-3.909,-4.98 -7.772,-7.956 -12.439,-7.818c-1.604,1.523 -3.609,1.962 -4.833,-0.498c-0,0 -3.981,-0.237 -5.544,0.782c-2.109,1.374 -4.825,4.833 -7.108,7.463Z" style="fill:#f8c5d2;"/><clipPath id="_clip13"><path d="M132.022,46.447c1.959,2.379 3.253,3.973 5.402,4.834c0.602,-0.534 1.383,-0.852 2.488,-0.782c0.811,2.673 0.753,4.766 0.426,6.681l13.861,2.132c-0.292,-2.912 -0.447,-5.852 0.213,-8.956l2.132,1.351c2.658,-1.408 4.071,-2.833 5.402,-5.189c-3.909,-4.98 -7.772,-7.956 -12.439,-7.818c-1.604,1.523 -3.609,1.962 -4.833,-0.498c-0,0 -3.981,-0.237 -5.544,0.782c-2.109,1.374 -4.825,4.833 -7.108,7.463Z"/></clipPath><g clip-path="url(#_clip13)"><g><path d="M153.413,41.42c1.074,1.677 2.025,3.443 2.385,5.425c0.299,1.645 0.2,2.857 -1.195,3.917" style="fill:none;stroke:#000;stroke-opacity:0.12;stroke-width:0.74px;"/><path d="M144.165,45.543c-1.485,1.357 -3.159,3.398 -4.475,4.92" style="fill:none;stroke:#000;stroke-opacity:0.14;stroke-width:0.74px;"/></g></g></g><defs><linearGradient id="_Linear1" x1="0" y1="0" x2="1" y2="0" gradientUnits="userSpaceOnUse" gradientTransform="matrix(-225.624,72.6344,-72.6344,-225.624,180.833,86.308)"><stop offset="0" style="stop-color:#fff;stop-opacity:0.3"/><stop offset="1" style="stop-color:#fff;stop-opacity:0"/></linearGradient></defs></svg>