<svg xmlns="http://www.w3.org/2000/svg" xmlns:xlink="http://www.w3.org/1999/xlink" viewBox="0 0 250 137" fill-rule="evenodd" stroke-linecap="round" stroke-linejoin="round" stroke-miterlimit="1.5" xmlns:v="https://vecta.io/nano"><style><![CDATA[.B{fill:none}.C{stroke-width:.74}.D{fill:#fff}.E{stroke:#000}.F{fill:#ff886f}.G{stroke-width:.61}.H{stroke-opacity:.5}]]></style><path d="M9.36 139.764c-7.32-.659-6.04-16.402-1.953-21.961s19.716-10.053 26.474-11.394c4.73-.938 10.04 5.994 14.075 3.352 6.311-4.134 13.963-24.017 23.793-28.15s23.611 5.549 35.186 3.351c13.237-2.513 30.851-18.394 44.235-18.431 21.512-.059 28.94 27.476 33.847 37.198 4.736 9.385 24.407 3.797 30.495 8.042 5.042 3.516 1.834 12.936 6.032 17.426 4.212 4.506 25.708 9.379 19.24 9.611-22.733.817-192.528 4.457-231.424.956z" fill="url(#M)"/><g class="D"><path d="M86.023 16.894s-.275-.783 0-.843c.731-.159 3.523.412 4.385-.112s-.094-2.502.787-3.036 3.219.615 4.498-.169 1.398-4.262 3.205-4.554c3.877-.627 7.364 5.018 7.477 7.084.049.885 1.884.853 2.586.618s.919-1.911 1.631-2.024 2.108.816 2.642 1.35c.457.457.563 1.855.563 1.855l-27.774-.169z" fill-opacity=".79"/><path d="M144.966 12.778c-.932-.045.335-2.196 1.208-2.525 1.263-.476 5.106.714 6.369-.33s-.28-4.567 1.208-5.929c1.519-1.391 5.362-2.837 7.906-2.416s5.051 4.575 7.357 4.941 4.182-3.219 6.479-2.745c2.837.586 7.229 5.179 10.542 6.259 2.959.965 7.028.531 9.334.22 1.639-.221 2.867-2.341 4.502-2.087 1.647.257 4.52 2.801 5.381 3.624.321.308.225 1.311-.22 1.318-10.048.165-50.256.146-60.066-.33z" fill-opacity=".57"/><path d="M22.263 65.361a.77.77 0 0 0-.772-.772H11.368c-.426 0-.772.346-.772.772s.346.772.772.772h10.123a.77.77 0 0 0 .772-.772z"/><use xlink:href="#N"/><path d="M122.596 113.058c0-.426-.346-.772-.772-.772h-10.123a.772.772 0 1 0 0 1.544h10.123a.77.77 0 0 0 .772-.772zm50.688-5.534c0-.426-.346-.772-.772-.772h-10.123c-.426 0-.772.346-.772.772s.346.772.772.772h10.123c.426 0 .772-.346.772-.772zm11.57-87.547c0-.499-.405-.904-.904-.904h-13.637c-.499 0-.904.405-.904.904s.405.904.904.904h13.637c.499 0 .904-.405.904-.904zm-19.766-.264c0-.499-.405-.904-.903-.904h-5.555c-.499 0-.904.405-.904.904s.405.904.904.904h5.555c.498 0 .903-.405.903-.904zm-4.981 87.987c0-.426-.346-.772-.772-.772H155.8c-.426 0-.772.346-.772.772s.346.772.772.772h3.535c.426 0 .772-.346.772-.772z"/><use xlink:href="#N"/><use xlink:href="#N"/><path d="M130.087 117.348c0-.426-.346-.772-.772-.772h-5.818c-.427 0-.773.346-.773.772s.346.772.773.772h5.818c.426 0 .772-.346.772-.772z"/></g><path d="M182.016 129.566l.029 2.476 5.872.115.086-2.504-5.987-.087z" fill="#ff8f70"/><use xlink:href="#O" fill="#193986"/><clipPath id="A"><use xlink:href="#O"/></clipPath><g clip-path="url(#A)"><path d="M194.713 136.196a.61.61 0 0 0-.612-.611h-13.198c-.337 0-.612.274-.612.611v1.224c0 .337.275.611.612.611h13.198a.61.61 0 0 0 .612-.611v-1.224z" fill="#0d0d72"/><path d="M180.061 131.036h9.211v1.382h-9.211z" fill="#a1a1a1"/><g class="D"><ellipse cx="188.351" cy="133.526" rx=".489" ry="1.079"/><ellipse cx="189.733" cy="133.728" rx=".489" ry="1.079"/></g></g><path d="M200.772 129.476l-.062 2.791 5.873.115.086-2.504-5.897-.402z" fill="#ff8f70"/><use xlink:href="#O" x="18.666" y="0.225" fill="#193986"/><clipPath id="B"><use xlink:href="#O" x="18.666" y="0.225"/></clipPath><g clip-path="url(#B)"><path d="M213.379 136.421a.61.61 0 0 0-.612-.611h-13.198a.61.61 0 0 0-.612.611v1.224a.61.61 0 0 0 .612.611h13.198a.61.61 0 0 0 .612-.611v-1.224z" fill="#0d0d72"/><path d="M198.727 131.261h9.211v1.382h-9.211z" fill="#a1a1a1"/><g class="D"><ellipse cx="207.017" cy="133.751" rx=".489" ry="1.079"/><ellipse cx="208.399" cy="133.953" rx=".489" ry="1.079"/></g></g><use xlink:href="#P" fill="#222256"/><clipPath id="C"><use xlink:href="#P"/></clipPath><g clip-path="url(#C)" class="B"><g opacity=".1" stroke="#fff" stroke-width="1.02"><path d="M192.287 72.419c-1.402 1.543-5.074 3.193-7.003 3.938m22.605-3.587c.825 2.016 2.751 3.773 4.887 4.32m-10.369-3.758c0 3.03-.487 5.703-.751 8.731-.463 5.303-.782 10.134-2.783 15.041m6.345-24.755c0 1.668-.117 3.389-.633 4.987-.243.752-1.516 1.764-2.37 1.936"/></g></g><use xlink:href="#P" stroke-opacity=".36" class="B C E"/><path d="M229.83 26.402l4.146-5.464c.104 3.528 2.251 6.85 6.571 9.066l-5.78 1.546c-2.079-1.211-3.702-2.954-4.937-5.148z" fill="#fdfdfe"/><path d="M242.472 21.422c2.289 3.405 2.614 7.2.724 8.47s-5.282-.462-7.571-3.867-2.613-7.201-.723-8.471 5.282.463 7.57 3.868z" fill="#4274cd" stroke="#5b88e9" class="C"/><path d="M234.956 24.136l1.964-.424 1.85 1.711-1.213 2.349c-1.157-.932-2.103-2.224-2.601-3.636z" fill="#002261"/><path d="M236.92 23.712l1.268-1.045c1.103-.09 1.596.66 1.619 1.709l-1.079 1.147c-.668-.322-1.38-1.189-1.808-1.811z" class="D"/><path d="M229.079 27.614l.734-1.223c1.09 1.783 3.178 4.043 4.965 5.188l-.632.709c-1.813-.566-4.029-2.351-5.067-4.674z" fill="#3b6cc1"/><path d="M227.248 30.654s-.759 2.39-.205 3.037 3.526.85 3.526.85c-.606-1.395-1.548-2.835-3.321-3.887z" fill="#fdffff"/><path d="M228.186 32.97l-1.041-2.458 2.049-2.968c.94 2.145 2.613 3.648 4.958 4.563l-3.231 2.813" fill="#699eeb"/><use xlink:href="#Q" class="F"/><clipPath id="D"><use xlink:href="#Q"/></clipPath><g clip-path="url(#D)"><path d="M234.558 35.039s1.383 1.705 1.898 1.673.611-.74.611-.74l.933.032.161 2.091s-2.992.708-3.217.289-.965-3.474-.965-3.474l.579.129z" fill="#001d66"/></g><path d="M198.859 35.898l-.055-7.192 1.373-.769.933-2.855c.165-.513 1.062-1.025 2.691-1.537 1.299 1.228 1.646 2.186 1.774 3.56 0 0 1.421 1.333 1.462 2.017.003.046-.185.208-.373.3-.234.115-.48.161-.478.211.038 1.057-.068 1.51-.158 1.995-.065.356-.909.592-.909.592v4.117c-2.087 1.37-4.173 1.266-6.26-.439z" fill="#fd876f"/><path d="M198.822 31.52c-.586-.137-2.262-1.081-2.982-2.705-.862-1.848-.53-3.697.658-5.545 2.502-.466 3.395-3.422 5.052-3.404s4.767 2.635 4.886 3.514-3.788.988-4.173 1.757-1.482 2.58-1.866 3.02-1.044 1.482-1.044 1.482.055 2.018-.531 1.881z" fill="#030101"/><path d="M213.691 51.016c2.009 4.11 4.694 7.071 8.797 7.619 3.346.072 12.495-17.875 12.495-17.875l-4.484-1.761c-4.319 4.227-6.728 6.456-7.697 8.797l-2.906-.785-6.205 4.005" class="F"/><use xlink:href="#R" fill="#3463c8"/><clipPath id="E"><use xlink:href="#R"/></clipPath><g clip-path="url(#E)" class="B C E"><g opacity=".3"><path d="M196.131 46.264c-1.049 1.935-3.438 4.309-5.024 5.817m20.907-9.23c-.426 3.358.356 6.341 1.522 9.465m-15.142-16.785c2.514 3.005 5.543 2.518 7.848-.34"/></g></g><path d="M183.505 45.73c-7.056 11.127-14.113 19.35-21.169 26.078-.165 1.346.041 2.301.702 2.774.682.489 1.849.466 3.593-.166 9.191-5.384 17.336-12.992 24.851-21.937l-7.977-6.749z" class="F"/><path d="M43.957 39.172c-.07-3.395 1.271-6.791 5.551-10.186 1.588.307 2 2.439 2.521 3.162.257.359.469.842.601 1.18.105.268.297.593.188.845s-.64.367-.838.663c-.296.445-.47 1.64-.94 2.007s-1.878.198-1.878.198l-.247 2.569-2.075 1.631-2.883-2.069z" fill="#fda38f"/><path d="M49.315 29.447c.635-.586 2.083 1.544 2.083 1.544s1.969.381 1.66-.079c-.672-1.002-3.677-5.68-5.693-5.93s-5.765 2.292-6.404 4.428c.346 1.37-.853 2.175-2.194 2.491 0 0-2.613-.475-3.459.315-1.038.969-2.078 3.564-2.768 5.495-.692 1.938-3.143 6.049-1.383 6.128s9.745-4.599 11.939-5.653c.42-.202.958-.29 1.225-.672 1.074-1.535 3.814-6.98 4.994-8.067z" fill="#010101"/><path d="M29.445 52.942s-2.463 7.066-3.016 10.745c-.628 4.178-1.256 12.064-.754 14.326.278 1.252 3.248.417 3.77-.754.912-2.042.786-7.885 1.697-11.499.885-3.508 3.77-10.179 3.77-10.179l-5.467-2.639zm19.37 3.216s5.012 5.557 7.972 7.811c3.362 2.56 9.975 6.902 12.2 7.548 1.231.358 1.926-2.647 1.151-3.668-1.352-1.781-6.537-4.48-9.267-7.016-2.651-2.462-7.113-8.199-7.113-8.199l-4.943 3.524z" fill="#fca18e"/><path d="M34.896 63.729l-.006 1.958c4.651 1.381 9.728 1.697 15.054 1.391l1.434-2.741-16.482-.608z" fill="#ffa28c"/><use xlink:href="#S" class="D"/><clipPath id="F"><use xlink:href="#S"/></clipPath><g clip-path="url(#F)" stroke="#8c8c8c" class="B G H"><path d="M28.488 52.398c2.464 1.469 3.538 3.402 6.911 4.546.26.088 5.414-5.852 5.479-6.821m12.243-4.931c.474 2.83-.654 5.932.655 9.245"/></g><path d="M50.827 126.091c.032 4.946.229 7.4.496 8.801 2.244 1.133 4.544.936 6.887-.233l.929-1.954c-1.013-1.61-1.17-3.465-.782-5.476l-7.53-1.138z" fill="#fba08d"/><path d="M50.121 133.428c.048-.655.158-1.165.376-1.261.697-.307 3.893 2.995 3.893 2.995l4.511-2.104s6.088 2.269 5.999 2.979-6.534 1.282-6.534 1.282-1.68-.954-2.282-.984c-.518-.025-1.33.809-1.33.809l-4.545-.143-.093-1.453 2.812-.132c-.796-.812-1.747-1.459-2.807-1.988z" fill="#010406"/><path d="M25.275 111.399l-6.091 6.372c.704 2.413 2.419 3.96 4.873 4.873l2.061-.656c.485-1.839 1.733-3.221 3.468-4.31l-4.311-6.279z" fill="#fba08d"/><path d="M19.433 115.894c.511-.413.959-.681 1.178-.587.7.3.47 4.889.47 4.889l4.618 1.86s2.498 5.997 1.919 6.417-5.398-3.899-5.398-3.899-.45-1.879-.84-2.338c-.335-.396-1.499-.42-1.499-.42l-2.998-3.419.997-1.059 2.017 1.964c.049-1.136-.127-2.272-.464-3.408z" fill="#010406"/><path d="M34.89 65.687c-5.236 5.391 2.643 24.046 2.703 24.959.5 7.602-13.59 19.434-13.59 19.434l7.413 10.295 15.339-16.987 1.236 23.915 12.56.206c-.404-11.762-.069-24.997-1.648-35.288-1.394-9.09-4.038-17.9-7.824-26.458-4.372 1.876-9.895 1.617-16.189-.076z" fill="#f44e3d" stroke-opacity=".33" class="E G"/><g opacity=".25" class="B E G"><path d="M34.419 66.376c3.048.673 6.214.935 9.33 1.058 1.344.054 2.709.224 4.053.123 1.216-.092 2.41-.432 3.551-.847m-16.977-.25c-.365.659-.7 1.316-.94 2.032m-.072.119l4.943 1.401m.075.075c-.943.922-2.084 1.492-3.199 2.17-.541.33-1.034.745-1.544 1.119"/><path d="M38.593 70.213l5.634-.057 3.294-.045c1.249-.11 3.417-.73 4.595-1.117m-15.398-2.089l.15 2.191"/><path d="M42.701 67.445c.083.821.265 1.587.199 2.415m3.759-2.1c0 .835.07 1.447.18 2.275m-2.3.27c.714 2.421.866 3.612 1.115 6.134.466 4.716 3.454 17.006 3.444 17.157-.261 3.956-2.148 6.156-2.44 10.107"/></g><g fill="#ffa18d"><path d="M156.051 50.829c3.523 2.177 5.588 3.34 8.162 3.039 9.71-2.466 12.885-11.17 16.685-11.575 1.44-1.543-.088-2.561-2.681-2.712-2.722-.159-2.988 6.344-11.864 8.138-3.784-.191-6.675-1.475-8.778-3.64l-1.524 6.75z"/><path d="M177.03 39.987s3.598-1.676 4.446-1.582-.754 1.791-1.131 1.838-3.315-.256-3.315-.256z"/></g><path d="M140.183 126.769l-.35 2.168 6.397-.066-.466-2.266-5.581.164z" fill="#072a4f"/><path d="M139.811 128.087l.096 3.151 3.812-.217 1.279-3.112-5.187.178z" fill="#ffa285"/><use xlink:href="#T" fill="#4776ce"/><clipPath id="G"><use xlink:href="#T"/></clipPath><g clip-path="url(#G)"><path d="M139.762 130.949l-.041 2.075 4.264-.217.313-2.196-4.536.338z" class="D"/><g fill="#203e74"><path d="M139.714 135.823l8.228.072.41 1.617-8.759-.29.121-1.399z"/><ellipse cx="144.902" cy="134.182" rx=".217" ry=".796"/><ellipse cx="145.625" cy="134.206" rx=".241" ry=".724"/><path d="M144.517 133.473c.128.084.064.41-.143.728s-.48.508-.608.424-.064-.409.143-.727.48-.508.608-.425z"/></g></g><path d="M105.793 98.341l-3.087.641.874 3.717 3.287.72-1.074-5.078z" fill="#ffa285"/><use xlink:href="#U" fill="#4776ce"/><clipPath id="H"><use xlink:href="#U"/></clipPath><g clip-path="url(#H)"><path d="M102.966 98.789l-2.051.319.953 4.161 2.216-.071-1.118-4.409z" class="D"/><g fill="#203e74"><path d="M98.157 99.586l1.354 8.116-1.521.684-1.232-8.677 1.399-.123zm3.299 4.687c.021.118-.314.275-.746.352s-.801.042-.822-.076.314-.276.746-.352.801-.042.822.076z"/><path d="M101.486 105.002c.024.132-.277.294-.671.363s-.731.019-.754-.112.277-.294.671-.363.731-.019.754.112zm-.183-1.093c-.06.141-.392.134-.741-.015s-.584-.384-.523-.525.392-.134.741.015.584.384.523.525z"/></g></g><path d="M110.92 95.209c5.6-4.206 11.059-7.941 19.991-8.538.712-1.972 1.517-3.178 1.858-4.879 1.425-7.123 1.113-11.872 2.098-15.32.953-3.332 5.102-9.058 5.102-9.058l14.577 2.186c.976 12.273 1.002 24.863.312 37.692-2.543 16.313-6.237 24.199-9.058 30.507l-5.831.416c1.874-12.475 2.916-25.042 2.291-37.795-5.206 7.131-14.751 10.673-28.008 11.141l-3.332-6.352z" fill="#eaeaea" stroke-opacity=".39" class="C E"/><g opacity=".32" class="B C E"><path d="M138.211 60.866c5.467 1.795 10.78 3.116 16.549 2.243m-8.042-4.415c-.154.989-.68 3.154-1.181 4.014"/><path d="M149.085 58.992c.402 2.069.727 5.008.738 7.112.007 1.379.191 3.019-.063 4.378m1.76-6.953c0 1.656.291 3.924.086 5.57m-.094.091c-.668.301-.987.659-1.608 1.036m-.146.213c-.253 8.007-4.123 14.501-8.426 20.965"/></g><path d="M150.337 24.902l-.989 1.226 3.581 2.403.566-2.262-3.158-1.367z" fill="#203763"/><path d="M142.279 32.584s-2.097.604-2.262 1.319.44 2.443 1.272 2.969 3.723.189 3.723.189 3.52.349 6.366.284c1.308-.029 2.548-.369 3.106-.473.703-.13 1.248-1.08 1.179-1.791-.079-.801-1.65-3.016-1.65-3.016l-1.037-3.628-2.214-2.357c-2.671-.031-4.87.016-6.033.236-1.202.352-1.939 1.171-1.885 2.78l-.565 3.488zm7.823-7.87c-.165-.762 1.217-2.679 1.885-2.922s1.563 1.147 2.12 1.461c.377.212 1.106.009 1.226.424.165.573.157 2.568-.236 3.016s-1.455-.066-2.121-.33c-.832-.33-2.709-.887-2.874-1.649z" fill="#010304"/><path d="M144.895 38.136c.756 1.965 2.221 2.095 4.183.943v-4.065c.069-.322.816.009.942-.294.148-.354.069-1.483-.059-1.827-.086-.232-.634.002-.707-.235-.147-.481-.176-2.651-.176-2.651-1.563-.067-2.852-.407-3.711-1.178l-2.357.059c-.865.935-.722 2.054-.742 3.38-.009.572-.457 1.214-.339 1.819.036.188.308.151.467.453.241.452.423 1.259.732 1.475.514.361 1.885.236 1.885.236l-.118 1.885z" fill="#fea18e"/><path d="M97.167 32.05c-1.028-2.996-1.218-6.048 2.026-9.329 3.247-.291 6.101-.226 7.783.906l.32 2.346c-2.647.394-4.391.387-5.757.213-1.991 1.983-3.518 3.881-4.372 5.864z"/><use xlink:href="#V" fill="#ffe078"/><clipPath id="I"><use xlink:href="#V"/></clipPath><g clip-path="url(#I)"><path d="M106.591 128.526l-.222 3.113s7.279-.979 7.443-1.431-.915-1.632-.915-1.632l-6.306-.05z" fill="#ff8a72"/><g fill="#19262c"><path d="M106.031 135.947c5.684.006 11.115.139 16.252.419l-1.057.929-15.885-.101.69-1.247zm8.084-4.722c.588-.503 1.156-.805 1.269-.674s-.272.648-.859 1.152-1.156.805-1.269.673.272-.647.859-1.151zm1.094.512c.588-.504 1.156-.806 1.269-.674s-.272.647-.859 1.151-1.156.805-1.269.674.272-.648.859-1.151z"/></g></g><use xlink:href="#W" fill="#ffe078"/><clipPath id="J"><use xlink:href="#W"/></clipPath><g clip-path="url(#J)"><path d="M70.812 123.024l-1.882 1.678s6.162 3.994 6.582 3.758.366-1.834.366-1.834l-5.066-3.602z" fill="#ff8a72"/><g fill="#19262c"><path d="M65.869 127.753l10.848 9.537-1.415.236-10.769-9.275 1.336-.498z"/><ellipse cx="75.079" cy="129.744" rx="1.402" ry=".314"/><ellipse cx="75.577" cy="130.845" rx="1.402" ry=".314"/></g></g><path d="M76.113 69.828c.015 4.776 3.416 12.39 3.748 13.269 1.734 4.59.3 15.893.3 15.893l-10.12 23.014c1.286 2.389 3.211 4.033 5.697 5.023l14.319-21.14 2.699-14.769c3.628 2.233 6.741 6.014 9.37 11.245 2.783 9.06 3.616 17.703 3.599 26.163 2.491.751 5.454.875 8.546.825l-.225-27.438-2.849-8.621-10.72-18.291v-2.174c-8.902-.707-17.061-1.693-24.364-2.999z" fill="#00152f"/><g opacity=".12" stroke="#fff" class="B C"><path d="M80.014 71.639l4.551 7.928c1.335 2.656 3.475 5.712 5.206 8.137.911 1.275 2.053 2.371 3.23 3.389"/><path d="M85.234 74.39l7.503-.132m-.082.029c0 1.652.061 3.565-.815 5.047-.977 1.654-3.311 1.763-4.517.33-.796-.946-1.031-2.221-1.157-3.42-.064-.617-.406-1.308-.806-1.824"/></g><path d="M79.758 44.382c-8.345 6.969-11.389 16.059-13.47 25.535.251 2.967 1.545 3.553 3.982 1.523l12.768-23.661-3.28-3.397m21.485 11.429c5.769 9.217 14.36 13.47 23.464 16.821 2.974.155 3.73-1.047 2.051-3.739-3.77-2.763-6.711-4.335-10.909-8.363-2.162-2.074-4.381-6.066-7.796-8.556l-6.81 3.837" class="F"/><path d="M96.368 34.289c.963-3.039 2.59-5.776 5.117-8.103l3.519-.16.586 3.198s.897 1.262.853 1.6-1.119.426-1.119.426-.125 2.826-.48 3.465c-.274.494-1.653.373-1.653.373l-1.919 2.506c-3.497.044-5.103-1.075-4.904-3.305z" fill="#fe8a71"/><use xlink:href="#X" fill="#f3f3f3"/><clipPath id="K"><use xlink:href="#X"/></clipPath><g clip-path="url(#K)" stroke="#8c8c8c" class="B C H"><path d="M93.593 35.709c-2.881 3.962-8.158 6.374-10.561 11.899m27.652 3.089c-3.583 2.89-7.633 3.333-9.837 6.199m-6.926-11.24c2.249 3.258 2.97 7.703 6.536 10.998"/></g><path d="M132.335 46.478c-3.294 2.512-4.763 5.023-5.402 7.535-1.171 9.948-2.217 15.782-3.199 19.475.925 1.897 2.108 1.611 3.412.285 1.122-2.485 2.906-7.631 4.407-16.562 2.059-2.418 4.289-4.666 6.539-6.894l-5.757-3.839z" fill="#ffa18d"/><use xlink:href="#Y" fill="#f8c5d2"/><clipPath id="L"><use xlink:href="#Y"/></clipPath><g clip-path="url(#L)" class="B C E"><path d="M153.413 41.42c1.074 1.677 2.025 3.443 2.385 5.425.299 1.645.2 2.857-1.195 3.917" stroke-opacity=".12"/><path d="M144.165 45.543c-1.485 1.357-3.159 3.398-4.475 4.92" stroke-opacity=".14"/></g><defs><linearGradient id="M" x1="180.833" y1="86.308" x2="-44.791" y2="158.942" gradientUnits="userSpaceOnUse"><stop offset="0" stop-color="#fff" stop-opacity=".3"/><stop offset="1" stop-color="#fff" stop-opacity="0"/></linearGradient><path id="N" d="M13.215 70.807c0-.426-.346-.772-.772-.772H2.32c-.426 0-.772.346-.772.772s.346.773.772.773h10.123c.426 0 .772-.346.772-.773z"/><path id="O" d="M181.903 131.929l.202 4.922 11.716-.029s-.009-1.286-.403-1.727c-.49-.547-1.636-1.161-2.533-1.554s-2.85-.806-2.85-.806l-.058-.777-6.074-.029z"/><path id="P" d="M186.735 70.802l-1.412 8.363-3.437 50.32 6.254.351c3.429-8.916 7.02-19.851 10.823-33.452l1.687 33.101 6.184.211c3.564-14.722 6.089-32.926 6.466-58.331-10.301 2.524-19.262 2.535-26.565-.563z"/><path id="Q" d="M230.504 39.157s-.058-2.159.354-3.121c.445-1.04 1.619-2.617 2.316-3.121.505-.365 1.329-.218 1.866.097.805.472 2.692 1.587 2.96 2.734s-1.351 4.151-1.351 4.151l-1.705.997-4.44-1.737z"/><path id="R" d="M183.078 45.992c1.84 2.926 4.497 5.034 8.012 6.284l-2.671 3.77-2.67 14.53c7.014 3.614 16.967 3.22 28.589.55l-1.178-19.322c3.506-.28 6.129-2.075 8.168-4.869 0 0-6.034-7.92-8.482-9.896-1.688-1.363-6.205-1.964-6.205-1.964-2.904 2.59-5.71 2.829-8.404.393 0 0-6.309.55-8.797 2.277-2.526 1.755-6.362 8.247-6.362 8.247z"/><path id="S" d="M28.282 52.453c1.447-6.763 5.369-11.668 15.675-13.281 0 0 1.685 1.313 2.47 1.274s1.387-1.793 2.24-1.506c5.404 1.821 8.974 9.26 7.721 14.825l-3.263.694.715 10.039c-7.442 1.428-14.42 1.158-20.925-.849l1.697-6.608c-2.38-1.074-3.95-2.524-6.33-4.588z"/><path id="T" d="M139.762 130.949l-.12 6.08 8.227.048-.048-1.906s-1.146-.953-1.761-1.158-1.931-.072-1.931-.072l-.313-1.738.096-1.327-4.15.073z"/><path id="U" d="M102.966 98.789l-6.009.935 1.377 8.111 1.869-.378s.741-1.293.836-1.935-.263-1.914-.263-1.914l1.656-.609 1.324-.135-.79-4.075z"/><path id="V" d="M106.706 128.487l-.552 6.1c-.02 1.078-.444 1.925.23 2.338.784.48 3.122-.072 5.312-.094l7.818.15c1.613.141 2.615-.36 2.409-2.129-.444-1.256-1-1.548-2.45-1.924 0 0-4.127-.751-5.223-1.448-.857-.545-1.351-2.731-1.351-2.731l-6.193-.262z"/><path id="W" d="M70.812 123.024s-2.414 2.033-3.965 3.776c-.717.806-1.59 1.172-1.347 1.925.283.874 2.417 1.977 4.094 3.386l5.838 5.202 3.214-.048c.48-1.242.249-1.826-.607-3.055 0 0-2.645-3.257-3.023-4.499-.296-.972.752-2.953.752-2.953l-4.956-3.734z"/><path id="X" d="M79.786 45.089l-.824-1.724c3.426-3.635 8.238-6.887 17.467-8.921 0 0 .212 1.825.899 2.249.75.462 3.599.525 3.599.525 4.99 3.403 7.83 8.24 9.82 13.644l-9.445 5.547 1.349 1.349v15.069c-10.052.404-19.609-.605-28.262-4.199 2.005-6.896 4.305-13.793 8.921-20.69l-3.524-2.849z"/><path id="Y" d="M132.022 46.447c1.959 2.379 3.253 3.973 5.402 4.834.602-.534 1.383-.852 2.488-.782.811 2.673.753 4.766.426 6.681l13.861 2.132c-.292-2.912-.447-5.852.213-8.956l2.132 1.351c2.658-1.408 4.071-2.833 5.402-5.189-3.909-4.98-7.772-7.956-12.439-7.818-1.604 1.523-3.609 1.962-4.833-.498 0 0-3.981-.237-5.544.782-2.109 1.374-4.825 4.833-7.108 7.463z"/></defs></svg>