<?xml version="1.0" encoding="UTF-8" standalone="no"?><!DOCTYPE svg PUBLIC "-//W3C//DTD SVG 1.1//EN" "http://www.w3.org/Graphics/SVG/1.1/DTD/svg11.dtd"><svg width="100%" height="100%" viewBox="0 0 20 20" version="1.1" xmlns="http://www.w3.org/2000/svg" xmlns:xlink="http://www.w3.org/1999/xlink" xml:space="preserve" xmlns:serif="http://www.serif.com/" style="fill-rule:evenodd;clip-rule:evenodd;stroke-linejoin:round;stroke-miterlimit:2;"><path d="M19.487,16.226l-15.674,-15.674c-0.683,-0.684 -1.792,-0.684 -2.474,-0l-0.826,0.825c-0.684,0.684 -0.684,1.792 -0,2.474l15.674,15.674c0.684,0.684 1.792,0.684 2.474,0l0.825,-0.824c0.685,-0.683 0.685,-1.791 0.001,-2.475Z" style="fill-rule:nonzero;"/><path d="M16.187,0.552l-15.674,15.674c-0.684,0.684 -0.684,1.792 -0,2.475l0.824,0.824c0.684,0.684 1.793,0.684 2.475,0l15.675,-15.673c0.684,-0.683 0.684,-1.791 0,-2.474l-0.825,-0.825c-0.683,-0.685 -1.791,-0.685 -2.475,-0.001l-0,-0Z" style="fill-rule:nonzero;"/></svg>